{"title":"The Hobbit Trilogy Extended BRRip XviD MP3 Idiocracy","uid":12650062,"size":3908806470,"categoryP":"video","categoryS":"movies","magnet":"?xt=urn:btih:7f51cbf16b53fde9c09eed1b513dd69922a1d9a2&amp;dn=The+Hobbit+Trilogy+Extended+BRRip+XviD+MP3+Idiocracy&amp;tr=udp%3A%2F%2Ftracker.leechers-paradise.org%3A6969&amp;tr=udp%3A%2F%2Fzer0day.ch%3A1337&amp;tr=udp%3A%2F%2Fopen.demonii.com%3A1337&amp;tr=udp%3A%2F%2Ftracker.coppersurfer.tk%3A6969&amp;tr=udp%3A%2F%2Fexodus.desync.com%3A6969","seeders":1,"leechers":1,"uploader":"Satafakap","files":9,"time":1446116464,"description":"The Hobbit: An Unexpected Journey\r\n \nhttp://www.imdb.com/title/tt0903624/\r\n\r\nGeneral\r\n\r\nComplete name       : The.Hobbit.An.Unexpected.Journey.2012.Extended.BRRip.XviD.MP3-Idiocracy.avi\r\nFile size           : 1.25 GiB\r\nDuration            : 3h 2mn\r\nOverall bit rate    : 982 Kbps\r\nSource              : The.Hobbit.An.Unexpected.Journey.EXTENDED.2012.BRRip.XviD.AC3-SANTi - Thanks!\r\nSample              : Yes\r\n\r\nVideo\r\n\r\nDuration                                 : 3h 2mn\r\nBit rate                                 : 845 Kbps\r\nWidth                                    : 640 pixels\r\nHeight                                   : 272 pixels\r\nDisplay aspect ratio                     : 2.35:1\r\nFrame rate                               : 23.976 fps\r\nBits/(Pixel*Frame)                       : 0.202\r\nStream size                              : 1.08 GiB (86%)\r\n\r\nAudio\r\n\r\nCodec ID/Hint                            : MP3\r\nDuration                                 : 3h 2mn\r\nBit rate mode                            : Constant\r\nBit rate                                 : 128 Kbps\r\nChannel(s)                               : 2 channels\r\nSampling rate                            : 48.0 KHz\r\nStream size                              : 167 MiB (13%)\r\n\r\nScreenshots:\r\n \nhttp://i.imgur.com/1FSaGUj.jpg\r\n \nhttp://i.imgur.com/VQeESe3.jpg\r\n \nhttp://i.imgur.com/2ifcvzk.jpg\r\n \nhttp://i.imgur.com/HvrofZI.jpg\r\n \nhttp://i.imgur.com/qeZltlY.jpg\r\n\r\n__________________________________________________________________________________\r\n\r\nThe Hobbit: The Desolation of Smaug\r\n\r\n \nhttp://www.imdb.com/title/tt1170358/\r\n\r\nGeneral\r\n\r\nComplete name       : The.Hobbit.The.Desolation.of.Smaug.2013.Extended.BRRip.XviD.MP3-Idiocracy.avi\r\nFile size           : 1.26 GiB\r\nDuration            : 3h 6mn\r\nOverall bit rate    : 965 Kbps\r\nSource              : The.Hobbit.The.Desolation.of.Smaug.2013.EXTENDED.BRRip.XviD.MP3-RARBG - Thanks!\r\nSample              : Yes\r\n\r\nVideo\r\n\r\nDuration                                 : 3h 6mn\r\nBit rate                                 : 828 Kbps\r\nWidth                                    : 640 pixels\r\nHeight                                   : 268 pixels\r\nDisplay aspect ratio                     : 2.40:1\r\nFrame rate                               : 23.976 fps\r\nBits/(Pixel*Frame)                       : 0.201\r\nStream size                              : 1.08 GiB (86%)\r\n\r\nAudio\r\n\r\nCodec ID/Hint                            : MP3\r\nDuration                                 : 3h 6mn\r\nBit rate mode                            : Constant\r\nBit rate                                 : 128 Kbps\r\nChannel(s)                               : 2 channels\r\nSampling rate                            : 48.0 KHz\r\nStream size                              : 171 MiB (13%)\r\n\r\nScreenshots:\r\n \nhttp://i.imgur.com/cCkqLbQ.jpg\r\n \nhttp://i.imgur.com/gHs54YH.jpg\r\n \nhttp://i.imgur.com/c76zGIi.jpg\r\n \nhttp://i.imgur.com/oeH5XBS.jpg\r\n \nhttp://i.imgur.com/QZEhrcM.jpg\r\n\r\n___________________________________________________________________________________\r\n\r\n\r\nThe Hobbit: The Battle of the Five Armies\r\n \nhttp://www.imdb.com/title/tt2310332/\r\n\r\nGeneral\r\n\r\nComplete name       : The.Hobbit.The.Battle.of.the.Five.Armies.2014.Extended.WEBRip.XviD.MP3-Idiocracy.avi\r\nFile size           : 1.10 GiB\r\nDuration            : 2h 44mn\r\nOverall bit rate    : 964 Kbps\r\nSource              : The.Hobbit.The.Battle.of.the.Five.Armies.2014.EXTENDED.WEB-DL.x264-RARBG - Thanks!\r\nSample              : Yes\r\n\r\nVideo\r\n\r\nDuration                                 : 2h 44mn\r\nBit rate                                 : 827 Kbps\r\nWidth                                    : 640 pixels\r\nHeight                                   : 268 pixels\r\nDisplay aspect ratio                     : 2.40:1\r\nFrame rate                               : 23.976 fps\r\nBits/(Pixel*Frame)                       : 0.201\r\nStream size                              : 970 MiB (86%)\r\n\r\nAudio\r\n\r\nCodec ID/Hint                            : MP3\r\nDuration                                 : 2h 44mn\r\nBit rate mode                            : Constant\r\nBit rate                                 : 128 Kbps\r\nChannel(s)                               : 2 channels\r\nSampling rate                            : 48.0 KHz\r\nStream size                              : 150 MiB (13%)\r\n\r\nScreenshots:\r\n \nhttp://i.imgur.com/98HvvS1.jpg\r\n \nhttp://i.imgur.com/tqWPvNp.jpg\r\n \nhttp://i.imgur.com/55yAV7K.jpg\r\n \nhttp://i.imgur.com/LMZj3ES.jpg\r\n \nhttp://i.imgur.com/dwvZZcZ.jpg","torrent":{"xt":"urn:btih:7f51cbf16b53fde9c09eed1b513dd69922a1d9a2","amp;dn":"The+Hobbit+Trilogy+Extended+BRRip+XviD+MP3+Idiocracy","amp;tr":["udp%3A%2F%2Ftracker.leechers-paradise.org%3A6969","udp%3A%2F%2Fzer0day.ch%3A1337","udp%3A%2F%2Fopen.demonii.com%3A1337","udp%3A%2F%2Ftracker.coppersurfer.tk%3A6969","udp%3A%2F%2Fexodus.desync.com%3A6969"],"infoHash":"7f51cbf16b53fde9c09eed1b513dd69922a1d9a2","infoHashBuffer":{"type":"Buffer","data":[127,81,203,241,107,83,253,233,192,158,237,27,81,61,214,153,34,161,217,162]},"announce":[],"urlList":[]}}